<svg id="Layer_1" data-name="Layer 1" xmlns="http://www.w3.org/2000/svg" xmlns:xlink="http://www.w3.org/1999/xlink" viewBox="0 0 301.08 309.81"><defs><style>.cls-1{fill:gray;}.cls-2{fill:#65c8d0;}.cls-3{fill:#099;}.cls-4{fill:url(#linear-gradient);}</style><linearGradient id="linear-gradient" x1="151" y1="166.46" x2="151" y2="31.44" gradientUnits="userSpaceOnUse"><stop offset="0.11" stop-color="gray"/><stop offset="0.36" stop-color="#099"/><stop offset="1" stop-color="#65c8d0"/></linearGradient></defs><title>UFCG_logo</title><polygon class="cls-1" points="150.72 82.83 61.37 134.47 89.31 150.61 178.66 98.97 150.72 82.83"/><polygon class="cls-2" points="61.64 134.48 89.57 150.62 89.61 221.58 61.64 237.72 61.64 134.48"/><polygon class="cls-2" points="89.5 221.59 151 257.06 150.87 289.38 61.53 237.73 89.5 221.59"/><polygon class="cls-3" points="151.13 257.06 240.36 205.48 240.38 237.76 151 289.39 151.13 257.06"/><polygon class="cls-3" points="178.93 98.94 178.93 169.96 89.57 221.62 89.53 150.61 178.93 98.94"/><polygon class="cls-1" points="178.66 169.95 240.06 205.49 150.85 257.06 89.35 221.59 178.66 169.95"/><polygon class="cls-3" points="150.96 237.73 223.6 195.8 223.6 145.88 150.96 237.73"/><polygon class="cls-2" points="150.69 237.73 106.11 211.9 178.66 120.03 223.34 145.88 150.69 237.73"/><path class="cls-4" d="M276.61,104.18c9.68,23.92-3.5,42.51-28,51.69-24.53,9.75-60.34,10.1-97.66,10.59-37.31-.49-73.13-.84-97.66-10.59-24.45-9.18-37.63-27.77-27.95-51.69C34,80.3,61.76,60.5,85.74,48.53,110.74,36.25,132,31.8,151,31.44c19,.36,40.26,4.81,65.26,17.09C240.24,60.5,268,80.3,276.61,104.18Z"/></svg>